<svg xmlns="http://www.w3.org/2000/svg" viewBox="0 0 64 64"><defs><style>.cls-1{fill:#45d821;stroke:#45d821;}.cls-1,.cls-3,.cls-4,.cls-5{stroke-linecap:round;stroke-linejoin:round;}.cls-1,.cls-3,.cls-4{stroke-width:2px;}.cls-2{opacity:0.1;}.cls-3{fill:#5b3b63;stroke:#5b3b63;}.cls-4,.cls-5{fill:none;}.cls-4{stroke:#006064;}.cls-5{stroke:#3eb51d;stroke-width:4px;}</style></defs><title>location-dollar</title><g id="location-dollar"><path class="cls-1" d="M31,3C18.85,3,9,13.85,9,26,9,40,28,61,31,61S53,40,53,26C53,13.85,43.15,3,31,3Zm0,32A13,13,0,1,1,44,22,13,13,0,0,1,31,35Z"/><g class="cls-2"><path class="cls-3" d="M31,54C28.23,54,11.77,36,9.32,22.26A22.67,22.67,0,0,0,9,26C9,40,28,61,31,61S53,40,53,26a22.67,22.67,0,0,0-.32-3.74C50.23,36,33.77,54,31,54Z"/></g><path class="cls-4" d="M25.86,46.07A7,7,0,0,0,31,48a7,7,0,0,0,5.1-1.9"/><path class="cls-4" d="M36,40.5a2,2,0,0,1,4,0"/><path class="cls-4" d="M22,40.5a2,2,0,0,1,4,0"/><path class="cls-5" d="M34,16H28.48A2.48,2.48,0,0,0,26,18.48v1A2.48,2.48,0,0,0,28.48,22h5A2.48,2.48,0,0,1,36,24.48v1A2.48,2.48,0,0,1,33.52,28H26"/><line class="cls-5" x1="30" y1="13" x2="30" y2="15"/><line class="cls-5" x1="31" y1="28" x2="31" y2="31"/></g></svg>