<?xml version="1.0" encoding="iso-8859-1"?>
<!-- Generator: Adobe Illustrator 16.0.0, SVG Export Plug-In . SVG Version: 6.00 Build 0)  -->
<!DOCTYPE svg PUBLIC "-//W3C//DTD SVG 1.1//EN" "http://www.w3.org/Graphics/SVG/1.1/DTD/svg11.dtd">
<svg version="1.1" id="Capa_1" xmlns="http://www.w3.org/2000/svg" xmlns:xlink="http://www.w3.org/1999/xlink" x="0px" y="0px"
	 width="612.062px" height="612.062px" viewBox="0 0 612.062 612.062" style="enable-background:new 0 0 612.062 612.062;"
	 xml:space="preserve">
<g>
	<g>
		<g>
			<path d="M345.897,207.201c0-38.313-15.521-72.999-40.563-98.042l-0.02-0.02l-0.02,0.02
				c-25.083-25.083-59.77-40.624-98.042-40.624c-38.312,0-72.999,15.521-98.082,40.583c-25.063,25.083-40.583,59.77-40.583,98.082
				c0,38.292,15.54,72.958,40.604,98.042c25.083,25.083,59.77,40.624,98.062,40.624c38.272,0,72.959-15.521,98.042-40.624
				l0.479-0.438C330.557,279.821,345.897,245.294,345.897,207.201L345.897,207.201z M318.782,95.651
				c28.569,28.57,46.241,68.018,46.241,111.55c0,43.253-17.452,82.482-45.685,110.992l-0.538,0.578
				c-28.549,28.549-67.998,46.221-111.568,46.221c-43.572,0-83.04-17.672-111.57-46.221c-28.53-28.55-46.222-68-46.222-111.57
				c0-43.552,17.672-83,46.202-111.53l0.06-0.04c28.53-28.53,67.998-46.222,111.53-46.222c43.572,0,83.02,17.672,111.568,46.222
				L318.782,95.651z"/>
			<path d="M385.724,312.475c-2.669,4.523-8.548,6.037-13.069,3.349c-4.522-2.67-6.037-8.547-3.347-13.07
				c21.517-36.459,29.686-78.656,24.524-119.439c-5.061-39.846-22.952-78.438-53.613-109.119
				C303.5,37.497,255.346,19.128,207.232,19.128c-48.154,0-96.309,18.349-132.967,55.048l-0.04,0.02l0.02,0.02
				c-36.718,36.718-55.087,84.873-55.087,132.987c0,48.114,18.369,96.269,55.087,132.986
				c36.718,36.719,84.853,55.088,132.967,55.088c48.154,0,96.309-18.369,133.027-55.088c3.726-3.705,9.782-3.687,13.488,0.041
				c3.705,3.725,3.686,9.78-0.04,13.487c-40.464,40.443-93.479,60.687-146.475,60.687c-53.016,0-106.071-20.263-146.515-60.687
				C20.253,313.271,0.031,260.217,0.031,207.201c0-53.016,20.222-106.071,60.686-146.515l0.02,0.02
				C101.201,20.242,154.237,0,207.232,0c53.016,0,106.051,20.222,146.515,60.686c33.71,33.71,53.414,76.246,58.993,120.256
				C418.438,225.869,409.433,272.33,385.724,312.475z"/>
			<path d="M207.232,98.819c5.279,0,9.563,4.284,9.563,9.563c0,5.279-4.284,9.563-9.563,9.563c-6.216,0-12.173,0.618-17.812,1.733
				c-5.877,1.195-11.575,2.968-16.975,5.26c-5.18,2.191-10.24,4.96-15.062,8.208l-0.458,0.299
				c-4.502,3.048-8.806,6.654-12.811,10.659c-8.109,8.128-14.684,17.751-19.166,28.331c-2.271,5.399-4.044,11.097-5.24,16.975
				c-1.116,5.618-1.733,11.575-1.733,17.792c0,5.28-4.284,9.563-9.563,9.563c-5.279,0-9.563-4.283-9.563-9.563
				c0-7.232,0.777-14.444,2.172-21.517c1.434-7.152,3.606-14.066,6.375-20.641c5.519-13.029,13.468-24.744,23.19-34.467
				c4.662-4.662,9.902-9.005,15.56-12.871l0.558-0.398c5.678-3.825,11.834-7.152,18.369-9.921c6.555-2.77,13.468-4.941,20.641-6.396
				C192.788,99.596,200,98.819,207.232,98.819z"/>
			<path d="M340.219,353.717c-3.726-3.727-3.726-9.803,0-13.528c3.727-3.726,9.803-3.726,13.527,0l54.55,54.551
				c3.727,3.725,3.727,9.803,0,13.526c-3.726,3.728-9.802,3.728-13.526,0L340.219,353.717z"/>
			<path d="M396.344,396.352L396.344,396.352c6.675-6.674,15.461-10.002,24.227-10.002c8.746,0,17.513,3.328,24.187,10.002
				l0.021,0.021l0.02-0.021l0.021,0.021l52.396,52.397l52.398,52.418l52.397,52.418h0.02c6.673,6.654,10,15.461,10,24.207
				c0,8.747-3.327,17.513-10.002,24.187l-0.021,0.021l0.021,0.021l-0.021,0.02h-0.02c-6.654,6.675-15.461,10.003-24.228,10.003
				s-17.553-3.328-24.207-10.003h-0.02l-52.418-52.418l-52.418-52.397l-52.398-52.398l-0.02-0.02
				c-6.654-6.674-10.001-15.459-10.001-24.228C386.321,411.812,389.669,403.025,396.344,396.352L396.344,396.352L396.344,396.352z
				 M409.891,409.879L409.891,409.879l-0.021,0.021c-2.929,2.928-4.403,6.812-4.403,10.678s1.476,7.77,4.403,10.699l0.021,0.02
				l52.397,52.398l52.397,52.418l52.397,52.418h0.021c2.929,2.928,6.812,4.401,10.679,4.401s7.771-1.475,10.699-4.401l0,0
				l0.02-0.021l0.021,0.021c2.909-2.931,4.363-6.795,4.363-10.719c0-3.865-1.475-7.75-4.384-10.681l-0.02-0.02l-52.398-52.418
				l-52.418-52.418l-52.396-52.398v-0.02l0.02-0.021c-2.929-2.908-6.794-4.363-10.719-4.363
				C416.685,405.477,412.8,406.951,409.891,409.879z"/>
		</g>
	</g>
</g>
<g>
</g>
<g>
</g>
<g>
</g>
<g>
</g>
<g>
</g>
<g>
</g>
<g>
</g>
<g>
</g>
<g>
</g>
<g>
</g>
<g>
</g>
<g>
</g>
<g>
</g>
<g>
</g>
<g>
</g>
</svg>
